<?xml version="1.0" encoding="UTF-8" standalone="no"?>
<!DOCTYPE svg PUBLIC "-//W3C//DTD SVG 1.1//EN"
 "http://www.w3.org/Graphics/SVG/1.1/DTD/svg11.dtd">
<!-- Generated by graphviz version 2.38.0 (20140413.2041)
 -->
<!-- Title: G Pages: 1 -->
<svg width="476pt" height="394pt"
 viewBox="0.00 0.00 475.89 394.00" xmlns="http://www.w3.org/2000/svg" xmlns:xlink="http://www.w3.org/1999/xlink">
<g id="graph0" class="graph" transform="scale(1 1) rotate(0) translate(4 390)">
<title>G</title>
<polygon fill="white" stroke="none" points="-4,4 -4,-390 471.893,-390 471.893,4 -4,4"/>
<g id="clust1" class="cluster"><title>cluster_Global</title>
<path fill="none" stroke="gray" d="M133.893,-8C133.893,-8 447.893,-8 447.893,-8 453.893,-8 459.893,-14 459.893,-20 459.893,-20 459.893,-366 459.893,-366 459.893,-372 453.893,-378 447.893,-378 447.893,-378 133.893,-378 133.893,-378 127.893,-378 121.893,-372 121.893,-366 121.893,-366 121.893,-20 121.893,-20 121.893,-14 127.893,-8 133.893,-8"/>
<text text-anchor="middle" x="290.893" y="-365.2" font-family="Times,serif" font-size="11.00" fill="gray">Global</text>
</g>
<g id="clust2" class="cluster"><title>cluster_\org</title>
<path fill="none" stroke="gray" d="M141.893,-16C141.893,-16 439.893,-16 439.893,-16 445.893,-16 451.893,-22 451.893,-28 451.893,-28 451.893,-338 451.893,-338 451.893,-344 445.893,-350 439.893,-350 439.893,-350 141.893,-350 141.893,-350 135.893,-350 129.893,-344 129.893,-338 129.893,-338 129.893,-28 129.893,-28 129.893,-22 135.893,-16 141.893,-16"/>
<text text-anchor="middle" x="290.893" y="-337.2" font-family="Times,serif" font-size="11.00" fill="gray">org</text>
</g>
<g id="clust3" class="cluster"><title>cluster_\org\dibujo</title>
<path fill="none" stroke="gray" d="M149.893,-24C149.893,-24 431.893,-24 431.893,-24 437.893,-24 443.893,-30 443.893,-36 443.893,-36 443.893,-310 443.893,-310 443.893,-316 437.893,-322 431.893,-322 431.893,-322 149.893,-322 149.893,-322 143.893,-322 137.893,-316 137.893,-310 137.893,-310 137.893,-36 137.893,-36 137.893,-30 143.893,-24 149.893,-24"/>
<text text-anchor="middle" x="290.893" y="-309.2" font-family="Times,serif" font-size="11.00" fill="gray">dibujo</text>
</g>
<g id="clust4" class="cluster"><title>cluster_\org\dibujo\finance</title>
<path fill="none" stroke="gray" d="M157.893,-32C157.893,-32 423.893,-32 423.893,-32 429.893,-32 435.893,-38 435.893,-44 435.893,-44 435.893,-282 435.893,-282 435.893,-288 429.893,-294 423.893,-294 423.893,-294 157.893,-294 157.893,-294 151.893,-294 145.893,-288 145.893,-282 145.893,-282 145.893,-44 145.893,-44 145.893,-38 151.893,-32 157.893,-32"/>
<text text-anchor="middle" x="290.893" y="-281.2" font-family="Times,serif" font-size="11.00" fill="gray">finance</text>
</g>
<g id="clust5" class="cluster"><title>cluster_\org\dibujo\finance\modules</title>
<path fill="none" stroke="gray" d="M330.893,-194C330.893,-194 406.893,-194 406.893,-194 412.893,-194 418.893,-200 418.893,-206 418.893,-206 418.893,-254 418.893,-254 418.893,-260 412.893,-266 406.893,-266 406.893,-266 330.893,-266 330.893,-266 324.893,-266 318.893,-260 318.893,-254 318.893,-254 318.893,-206 318.893,-206 318.893,-200 324.893,-194 330.893,-194"/>
<text text-anchor="middle" x="368.893" y="-253.2" font-family="Times,serif" font-size="11.00" fill="gray">modules</text>
</g>
<!-- \\org\\dibujo\\finance\\modules\\FinModRaif -->
<g id="node1" class="node"><title>\\org\\dibujo\\finance\\modules\\FinModRaif</title>
<polygon fill="none" stroke="black" points="410.893,-238 326.893,-238 326.893,-202 410.893,-202 410.893,-238"/>
<text text-anchor="middle" x="368.893" y="-217.2" font-family="Courier,monospace" font-size="11.00">FinModRaif</text>
</g>
<!-- \\org\\dibujo\\finance\\FinMod -->
<g id="node3" class="node"><title>\\org\\dibujo\\finance\\FinMod</title>
<polygon fill="none" stroke="black" points="237.893,-236 153.893,-236 153.893,-200 237.893,-200 237.893,-236"/>
<text text-anchor="start" x="161.893" y="-221.2" font-family="Courier,monospace" font-size="11.00">«abstract»</text>
<text text-anchor="start" x="175.393" y="-209.2" font-family="Courier,monospace" font-size="11.00">FinMod</text>
</g>
<!-- \\org\\dibujo\\finance\\modules\\FinModRaif&#45;&gt;\\org\\dibujo\\finance\\FinMod -->
<g id="edge3" class="edge"><title>\\org\\dibujo\\finance\\modules\\FinModRaif&#45;&gt;\\org\\dibujo\\finance\\FinMod</title>
<path fill="none" stroke="black" d="M326.498,-219.516C302.869,-219.239 273.049,-218.891 247.972,-218.597"/>
<polygon fill="none" stroke="black" points="247.946,-215.097 237.906,-218.48 247.864,-222.096 247.946,-215.097"/>
</g>
<!-- \\org\\dibujo\\finance\\FinModDataSheet -->
<g id="node2" class="node"><title>\\org\\dibujo\\finance\\FinModDataSheet</title>
<polygon fill="none" stroke="black" points="427.893,-184 309.893,-184 309.893,-148 427.893,-148 427.893,-184"/>
<text text-anchor="middle" x="368.893" y="-163.2" font-family="Courier,monospace" font-size="11.00">FinModDataSheet</text>
</g>
<!-- \\Iterator -->
<g id="node6" class="node"><title>\\Iterator</title>
<ellipse fill="none" stroke="black" cx="40.9464" cy="-193" rx="40.8928" ry="18"/>
<text text-anchor="middle" x="40.9464" y="-189.3" font-family="Times,serif" font-size="14.00" fill="gray">\Iterator</text>
</g>
<!-- \\org\\dibujo\\finance\\FinModDataSheet&#45;&gt;\\Iterator -->
<g id="edge1" class="edge"><title>\\org\\dibujo\\finance\\FinModDataSheet&#45;&gt;\\Iterator</title>
<path fill="none" stroke="black" stroke-dasharray="1,5" d="M309.62,-170.827C247.433,-175.978 149.976,-184.051 91.3981,-188.904"/>
<polygon fill="none" stroke="black" points="90.9603,-185.428 81.2834,-189.741 91.5382,-192.404 90.9603,-185.428"/>
</g>
<!-- \\org\\dibujo\\finance\\FinMod&#45;&gt;\\Iterator -->
<g id="edge2" class="edge"><title>\\org\\dibujo\\finance\\FinMod&#45;&gt;\\Iterator</title>
<path fill="none" stroke="black" stroke-dasharray="1,5" d="M153.503,-211.235C133.826,-208.018 110.192,-204.155 89.7528,-200.814"/>
<polygon fill="none" stroke="black" points="90.1349,-197.33 79.7012,-199.171 89.0056,-204.239 90.1349,-197.33"/>
</g>
<!-- \\org\\dibujo\\finance\\FinModParser -->
<g id="node4" class="node"><title>\\org\\dibujo\\finance\\FinModParser</title>
<polygon fill="none" stroke="black" points="417.893,-130 319.893,-130 319.893,-94 417.893,-94 417.893,-130"/>
<text text-anchor="middle" x="368.893" y="-109.2" font-family="Courier,monospace" font-size="11.00">FinModParser</text>
</g>
<!-- \\org\\dibujo\\finance\\FinModRow -->
<g id="node5" class="node"><title>\\org\\dibujo\\finance\\FinModRow</title>
<polygon fill="none" stroke="black" points="407.393,-76 330.393,-76 330.393,-40 407.393,-40 407.393,-76"/>
<text text-anchor="middle" x="368.893" y="-55.2" font-family="Courier,monospace" font-size="11.00">FinModRow</text>
</g>
</g>
</svg>
